<svg xmlns="http://www.w3.org/2000/svg" width="202" height="35" fill="none"><path fill="#5061FC" d="M62.3838 27.0819c-2.3183 0-4.3087-.3981-5.9714-1.1943-1.6626-.8196-3.0208-1.885-4.0745-3.1964-1.0538-1.3348-1.8383-2.7632-2.3535-4.2853-.4917-1.5456-.7376-3.0443-.7376-4.4961v-.7728c0-1.5923.2576-3.1613.7728-4.70683.5151-1.56895 1.2996-2.98569 2.3534-4.25021 1.0772-1.26453 2.4237-2.27146 4.0394-3.02081C58.0516.386383 59.9836 0 62.2082 0c2.3183 0 4.3673.433217 6.147 1.29965 1.7797.86644 3.1964 2.07242 4.2502 3.61795 1.0772 1.52211 1.7094 3.31352 1.8968 5.3742h-5.7958c-.1639-1.03032-.5386-1.90846-1.124-2.6344-.5854-.72593-1.3465-1.28794-2.2832-1.68603-.9132-.39809-1.9436-.59714-3.091-.59714-1.1475 0-2.1661.19905-3.056.59714-.8898.39809-1.6392.9601-2.248 1.68603-.5854.72594-1.0421 1.59237-1.3699 2.5993-.3044.9835-.4566 2.0841-.4566 3.3018 0 1.1943.1522 2.2949.4566 3.3018.3278.9836.7962 1.85 1.405 2.5993.6323.726 1.4051 1.288 2.3183 1.6861.9133.3747 1.9554.562 3.1262.562 1.7797 0 3.2784-.4332 4.4961-1.2997 1.2411-.8664 1.9905-2.0607 2.248-3.5828h5.7607c-.2108 1.8734-.8431 3.5945-1.8968 5.1635-1.0304 1.5455-2.4471 2.7866-4.2502 3.7233-1.7797.9133-3.899 1.3699-6.3578 1.3699ZM86.0166 27.0819c-1.6861 0-3.1848-.2576-4.4961-.7727-1.3114-.5386-2.4237-1.2646-3.337-2.1778-.8898-.9133-1.5689-1.9554-2.0373-3.1262-.4683-1.1943-.7025-2.4471-.7025-3.7585v-.8079c0-1.3347.2342-2.5993.7025-3.7935.4918-1.2177 1.1943-2.2832 2.1076-3.19648.9367-.91327 2.0607-1.6275 3.372-2.14267 1.3114-.5386 2.775-.80789 4.3908-.80789 1.6626 0 3.1379.26929 4.4258.80789 1.3114.51517 2.4237 1.2294 3.3369 2.14267.9133.91328 1.6158 1.97878 2.1076 3.19648.4917 1.1942.7376 2.4588.7376 3.7935v.8079c0 1.3114-.2341 2.5642-.7025 3.7585-.4683 1.1708-1.1591 2.2129-2.0724 3.1262-.8899.9132-1.9905 1.6392-3.3018 2.1778-1.3114.5151-2.8218.7727-4.5312.7727Zm0-4.7419c1.1006 0 2.0138-.2342 2.7398-.7026.7259-.4683 1.2762-1.124 1.6509-1.967.3981-.843.5971-1.7797.5971-2.8101 0-1.1006-.199-2.0607-.5971-2.8803-.3981-.843-.9718-1.5104-1.7212-2.0021-.7259-.4918-1.6158-.7377-2.6695-.7377-1.0304 0-1.9203.2459-2.6696.7377-.7493.4917-1.3231 1.1591-1.7212 2.0021-.3746.8196-.562 1.7797-.562 2.8803 0 1.0304.1874 1.9671.562 2.8101.3747.843.9367 1.4987 1.6861 1.967.7493.4684 1.6509.7026 2.7047.7026ZM98.7905 26.4145V7.16564h4.4605v8.25456h-.316c0-1.9671.246-3.6063.738-4.9176.515-1.31137 1.288-2.29489 2.318-2.95057 1.031-.65568 2.283-.98352 3.759-.98352h.246c2.248 0 3.957.73764 5.128 2.21292 1.194 1.45187 1.791 3.66477 1.791 6.63877v10.9943h-5.62V15.1041c0-1.0304-.304-1.8734-.913-2.5291-.609-.6557-1.428-.9835-2.459-.9835-1.054 0-1.908.3395-2.564 1.0186-.632.6557-.948 1.5221-.948 2.5993v11.2051h-5.6205ZM128.695 26.6604c-1.944 0-3.513-.2342-4.707-.7025-1.195-.4918-2.073-1.2997-2.635-2.4237-.538-1.1474-.808-2.6929-.808-4.6366V1.96704h5.234V19.1084c0 .9133.234 1.6158.703 2.1075.491.4684 1.182.7025 2.072.7025h2.845v4.742h-2.704Zm-11.065-15.385V7.16564h13.769v4.10976H117.63ZM144.98 26.4145v-5.6903h-.948V14.542c0-.9835-.234-1.7211-.703-2.2129-.468-.4917-1.217-.7376-2.248-.7376-.515 0-1.194.0117-2.037.0351-.843.0234-1.709.0586-2.599.1054-.89.0468-1.698.0937-2.424.1405V7.13052c.539-.04683 1.171-.09367 1.897-.1405.726-.04684 1.475-.08196 2.248-.10538.773-.02342 1.499-.03513 2.178-.03513 1.967 0 3.618.28101 4.952.84302 1.359.56201 2.389 1.41674 3.091 2.56417.703 1.124 1.054 2.5759 1.054 4.3556v11.8022h-4.461Zm-6.147.4918c-1.381 0-2.599-.2459-3.653-.7376-1.03-.4918-1.838-1.1943-2.423-2.1076-.586-.9367-.879-2.049-.879-3.3369 0-1.4051.363-2.5525 1.089-3.4424.726-.9132 1.745-1.5806 3.056-2.0021 1.312-.4449 2.822-.6674 4.531-.6674h4.11v3.1262h-4.145c-.983 0-1.744.2459-2.283.7376-.515.4684-.773 1.1123-.773 1.9319 0 .7728.258 1.4051.773 1.8968.539.4684 1.3.7025 2.283.7025.633 0 1.195-.1053 1.686-.3161.516-.2342.937-.6205 1.265-1.1591.328-.5386.515-1.288.562-2.2481l1.335 1.405c-.117 1.3348-.445 2.4588-.984 3.3721-.515.9133-1.241 1.6158-2.178 2.1076-.913.4917-2.037.7376-3.372.7376ZM161.094 27.0819c-1.662 0-3.114-.2693-4.355-.8079-1.218-.562-2.237-1.3113-3.056-2.248-.82-.9367-1.429-1.9905-1.827-3.1613-.398-1.1943-.597-2.4237-.597-3.6882v-.6674c0-1.3114.211-2.5642.632-3.7585.422-1.2177 1.042-2.2948 1.862-3.23153.82-.93669 1.838-1.67433 3.056-2.21292 1.241-.5386 2.658-.80789 4.25-.80789 1.733 0 3.267.33954 4.602 1.01864 1.334.65568 2.4 1.58066 3.196 2.7749.796 1.1943 1.241 2.5642 1.335 4.1097h-5.515c-.094-.8664-.445-1.5923-1.054-2.1778-.585-.6088-1.44-.9132-2.564-.9132-.937 0-1.721.2342-2.353.7025-.609.4683-1.066 1.1123-1.37 1.9319-.305.8196-.457 1.7914-.457 2.9154 0 1.0304.141 1.9671.422 2.8101.281.8196.726 1.4636 1.334 1.9319.633.4449 1.452.6674 2.459.6674.75 0 1.382-.1288 1.897-.3864.539-.281.96-.6557 1.264-1.124.328-.4918.527-1.0538.598-1.686h5.479c-.07 1.5923-.515 2.9974-1.335 4.215-.819 1.1943-1.908 2.131-3.266 2.8101-1.358.6557-2.904.9835-4.637.9835ZM180.917 26.6604c-1.944 0-3.513-.2342-4.707-.7025-1.195-.4918-2.073-1.2997-2.635-2.4237-.538-1.1474-.808-2.6929-.808-4.6366V1.96704h5.234V19.1084c0 .9133.234 1.6158.703 2.1075.491.4684 1.182.7025 2.072.7025h2.845v4.742h-2.704Zm-11.065-15.385V7.16564h13.769v4.10976h-13.769ZM192.813 27.0117c-2.74 0-4.882-.562-6.428-1.6861-1.545-1.124-2.365-2.7046-2.459-4.7419h4.988c.094.6088.457 1.1591 1.089 1.6509.656.4683 1.628.7025 2.916.7025.983 0 1.791-.1639 2.423-.4918.656-.3512.984-.843.984-1.4753 0-.562-.246-1.0069-.738-1.3347-.492-.3513-1.37-.5972-2.634-.7377l-1.511-.1405c-2.318-.2341-4.063-.8781-5.233-1.9319-1.148-1.0538-1.722-2.4002-1.722-4.0394 0-1.3582.34-2.494 1.019-3.40724.679-.91326 1.616-1.60407 2.81-2.07241 1.218-.46834 2.599-.70252 4.145-.70252 2.482 0 4.484.55031 6.006 1.65091 1.523 1.07719 2.319 2.64616 2.389 4.70686h-4.988c-.093-.6323-.421-1.1592-.983-1.5807-.562-.4449-1.394-.6674-2.494-.6674-.867 0-1.558.164-2.073.4918-.515.3278-.772.7728-.772 1.3348 0 .5386.222.9484.667 1.2294.445.281 1.171.48 2.178.5971l1.51.1405c2.365.2576 4.204.9133 5.515 1.9671 1.311 1.0537 1.967 2.4705 1.967 4.2502 0 1.2879-.351 2.4119-1.054 3.372-.702.9367-1.698 1.6627-2.986 2.1778-1.287.4918-2.798.7377-4.531.7377Z"/><path fill="#222" d="M0 26.4145V.772766h7.93841L13.8044 15.1743h.6674L20.2675.772766h8.0789V26.4145h-5.6903V4.53122l.8079.07025-6.7793 16.61443h-5.4796L4.39071 4.60147l.87815-.07025V26.4145H0ZM31.8135 34.0368v-4.7771h4.0043c.6088 0 1.124-.0819 1.5455-.2459.4215-.1405.7611-.3863 1.0187-.7376.2576-.3513.4683-.8313.6322-1.4402l4.742-19.67036h5.3391L43.7211 27.9601c-.3747 1.4987-.9016 2.6929-1.5807 3.5828-.6557.8898-1.5455 1.5221-2.6695 1.8968-1.1006.3981-2.5057.5971-4.2151.5971h-3.4423Zm6.0416-8.0438v-4.3907h4.0746v4.3907h-4.0746Zm-2.3183 0L29.6357 7.16564h5.6552l5.585 18.82736h-5.3391Z"/></svg>
